<svg width="33" height="18" viewBox="0 0 33 18" fill="none" xmlns="http://www.w3.org/2000/svg">
<path d="M16.5 0.5C20.8977 0.5 24.9161 2.67637 27.8662 4.89941C29.3354 6.00652 30.5254 7.11441 31.3477 7.94531C31.7585 8.3605 32.0773 8.70586 32.292 8.94629C32.3084 8.96466 32.3237 8.98287 32.3389 9C32.3237 9.01713 32.3084 9.03534 32.292 9.05371C32.0773 9.29414 31.7585 9.6395 31.3477 10.0547C30.5254 10.8856 29.3354 11.9935 27.8662 13.1006C24.9161 15.3236 20.8977 17.5 16.5 17.5C12.1023 17.5 8.08394 15.3236 5.13379 13.1006C3.66458 11.9935 2.47459 10.8856 1.65234 10.0547C1.24149 9.6395 0.922742 9.29414 0.708008 9.05371C0.691447 9.03517 0.675477 9.01728 0.660156 9C0.675477 8.98272 0.691447 8.96483 0.708008 8.94629C0.922742 8.70586 1.24149 8.3605 1.65234 7.94531C2.47459 7.11441 3.66458 6.00652 5.13379 4.89941C8.08394 2.67637 12.1023 0.5 16.5 0.5Z" stroke="#F3A26D"/>
<path d="M16.5 2.29999C20.4061 2.29999 23.5 5.20419 23.5 8.70038C23.4998 12.1964 20.4059 15.0998 16.5 15.0998C12.5941 15.0998 9.50023 12.1964 9.5 8.70038C9.5 5.20419 12.5939 2.29999 16.5 2.29999Z" stroke="#F3A26D"/>
<path d="M16.7996 5.89999C18.5534 5.89999 19.9 7.19355 19.9001 8.6998C19.9001 10.2061 18.5535 11.4996 16.7996 11.4996C15.0458 11.4994 13.7 10.206 13.7 8.6998C13.7001 7.19366 15.0459 5.90019 16.7996 5.89999Z" fill="#F3A26D" stroke="#F3A26D"/>
</svg>
