<svg width="40" height="40" viewBox="0 0 40 40" fill="none" xmlns="http://www.w3.org/2000/svg">
<rect width="40" height="40" rx="8" fill="#F0F2F5"/>
<g clip-path="url(#clip0_21_275)">
<path fill-rule="evenodd" clip-rule="evenodd" d="M29.8944 21.3341C29.6983 21.1376 29.4098 21.0655 29.1444 21.1466C26.2305 22.0275 23.0684 21.2338 20.9159 19.0813C18.7634 16.9288 17.9697 13.7666 18.8506 10.8528C18.9324 10.5873 18.8606 10.2982 18.6642 10.1018C18.4677 9.90529 18.1787 9.83354 17.9131 9.91531C15.936 10.521 14.2002 11.7348 12.9528 13.3841C10.7278 16.3381 10.3657 20.2968 12.0178 23.6055C13.6698 26.9143 17.0517 29.0035 20.75 29C22.8653 29.0065 24.9244 28.3188 26.6112 27.0425C28.2605 25.7951 29.4743 24.0593 30.08 22.0822C30.1608 21.8177 30.0895 21.5301 29.8944 21.3341ZM25.7094 25.8444C22.4249 28.3182 17.8202 27.9958 14.9125 25.0884C12.0048 22.1809 11.682 17.5762 14.1556 14.2916C14.9351 13.2622 15.9427 12.4279 17.0994 11.8541C17.0335 12.3165 17.0003 12.7829 17 13.25C17.0057 18.6324 21.3676 22.9943 26.75 23C27.218 22.9999 27.6854 22.9666 28.1488 22.9006C27.5744 24.0574 26.7394 25.0651 25.7094 25.8444Z" fill="#121417"/>
</g>
<defs>
<clipPath id="clip0_21_275">
<rect width="24" height="24" fill="white" transform="translate(8 8)"/>
</clipPath>
</defs>
</svg>
