<svg width="40" height="40" viewBox="0 0 40 40" fill="none" xmlns="http://www.w3.org/2000/svg">
<rect width="40" height="40" rx="8" fill="#F0F2F5"/>
<g clip-path="url(#clip0_21_288)">
<path fill-rule="evenodd" clip-rule="evenodd" d="M27.5 11.75H12.5C11.6716 11.75 11 12.4216 11 13.25V18.7606C11 27.1616 18.1081 29.9487 19.5312 30.4222C19.8352 30.5256 20.1648 30.5256 20.4688 30.4222C21.8938 29.9487 29 27.1616 29 18.7606V13.25C29 12.4216 28.3284 11.75 27.5 11.75ZM27.5 18.7616C27.5 26.1134 21.2797 28.5697 20 28.9972C18.7316 28.5744 12.5 26.12 12.5 18.7616V13.25H27.5V18.7616ZM15.7194 21.2806C15.4263 20.9876 15.4263 20.5124 15.7194 20.2194C16.0124 19.9263 16.4876 19.9263 16.7806 20.2194L18.5 21.9388L23.2194 17.2194C23.5124 16.9263 23.9876 16.9263 24.2806 17.2194C24.5737 17.5124 24.5737 17.9876 24.2806 18.2806L19.0306 23.5306C18.8899 23.6715 18.6991 23.7506 18.5 23.7506C18.3009 23.7506 18.1101 23.6715 17.9694 23.5306L15.7194 21.2806Z" fill="#121417"/>
</g>
<defs>
<clipPath id="clip0_21_288">
<rect width="24" height="24" fill="white" transform="translate(8 8)"/>
</clipPath>
</defs>
</svg>
