<svg width="40" height="40" viewBox="0 0 40 40" fill="none" xmlns="http://www.w3.org/2000/svg">
<rect width="40" height="40" rx="8" fill="#F0F2F5"/>
<g clip-path="url(#clip0_21_301)">
<path fill-rule="evenodd" clip-rule="evenodd" d="M20 10.25C14.6152 10.25 10.25 14.6152 10.25 20C10.25 25.3848 14.6152 29.75 20 29.75C25.3848 29.75 29.75 25.3848 29.75 20C29.7443 14.6176 25.3824 10.2557 20 10.25ZM20 28.25C15.4437 28.25 11.75 24.5563 11.75 20C11.75 15.4437 15.4437 11.75 20 11.75C24.5563 11.75 28.25 15.4437 28.25 20C28.2448 24.5542 24.5542 28.2448 20 28.25ZM21.5 24.5C21.5 24.9142 21.1642 25.25 20.75 25.25C19.9216 25.25 19.25 24.5784 19.25 23.75V20C18.8358 20 18.5 19.6642 18.5 19.25C18.5 18.8358 18.8358 18.5 19.25 18.5C20.0784 18.5 20.75 19.1716 20.75 20V23.75C21.1642 23.75 21.5 24.0858 21.5 24.5ZM18.5 15.875C18.5 15.2537 19.0037 14.75 19.625 14.75C20.2463 14.75 20.75 15.2537 20.75 15.875C20.75 16.4963 20.2463 17 19.625 17C19.0037 17 18.5 16.4963 18.5 15.875Z" fill="#121417"/>
</g>
<defs>
<clipPath id="clip0_21_301">
<rect width="24" height="24" fill="white" transform="translate(8 8)"/>
</clipPath>
</defs>
</svg>
