<svg width="40" height="40" viewBox="0 0 40 40" fill="none" xmlns="http://www.w3.org/2000/svg">
<rect width="40" height="40" rx="8" fill="#F0F2F5"/>
<g clip-path="url(#clip0_21_264)">
<path fill-rule="evenodd" clip-rule="evenodd" d="M20 10.25C14.6152 10.25 10.25 14.6152 10.25 20C10.25 25.3848 14.6152 29.75 20 29.75C25.3848 29.75 29.75 25.3848 29.75 20C29.7443 14.6176 25.3824 10.2557 20 10.25ZM28.25 20C28.2508 21.0584 28.0471 22.107 27.65 23.0881L23.4594 20.5109C23.2812 20.401 23.0819 20.3298 22.8744 20.3019L20.735 20.0131C20.1323 19.9345 19.5412 20.2249 19.235 20.75H18.4175L18.0612 20.0131C17.8617 19.5973 17.4809 19.2972 17.03 19.2003L16.28 19.0381L17.0131 17.75H18.5797C18.8332 17.7495 19.0824 17.685 19.3044 17.5625L20.4528 16.9288C20.5537 16.8725 20.648 16.8052 20.7341 16.7281L23.2569 14.4462C23.7779 13.9793 23.9049 13.2132 23.5625 12.6031L23.5288 12.5422C26.4101 13.9084 28.2477 16.8112 28.25 20ZM21.4353 11.8756L22.25 13.3344L19.7272 15.6163L18.5797 16.25H17.0131C16.4764 16.2492 15.9802 16.5352 15.7119 17L14.8934 18.4278L13.9419 15.8928L14.9675 13.4675C16.8032 12.0491 19.1518 11.4705 21.4362 11.8737L21.4353 11.8756ZM11.75 20C11.7487 18.7738 12.0223 17.5628 12.5506 16.4563L13.6137 19.2941C13.7938 19.7715 14.2042 20.1247 14.7031 20.2316L16.7122 20.6637L17.0694 21.4062C17.3222 21.9214 17.8455 22.2484 18.4194 22.25H18.5581L17.8803 23.7716C17.6362 24.3192 17.7416 24.9596 18.1484 25.4L18.1616 25.4131L20 27.3069L19.8181 28.2444C15.3375 28.1401 11.7574 24.4818 11.75 20ZM21.3669 28.1356L21.4728 27.5909C21.5611 27.1217 21.422 26.6384 21.0978 26.2878C21.0932 26.2837 21.0888 26.2793 21.0847 26.2747L19.25 24.3819L20.5344 21.5L22.6737 21.7887L26.96 24.425C25.7042 26.3971 23.6721 27.7453 21.3669 28.1356Z" fill="#121417"/>
</g>
<defs>
<clipPath id="clip0_21_264">
<rect width="24" height="24" fill="white" transform="translate(8 8)"/>
</clipPath>
</defs>
</svg>
